<?xml version="1.0" encoding="UTF-8"?>
<svg version="1.1" xmlns="http://www.w3.org/2000/svg" width="1080" height="540">
<path d="M0 0 C356.4 0 712.8 0 1080 0 C1080 178.2 1080 356.4 1080 540 C723.6 540 367.2 540 0 540 C0 361.8 0 183.6 0 0 Z " fill="#F1F1F1" transform="translate(0,0)"/>
<path d="M0 0 C7.57898222 1.78857342 15.17190505 3.5113421 22.76953125 5.21875 C32.46497434 7.39859381 42.15644229 9.59414465 51.8425293 11.81518555 C54.83438003 12.50114945 57.82672416 13.18489021 60.81958008 13.86645508 C62.28987663 14.20133319 63.76017286 14.53621273 65.23046875 14.87109375 C65.9473436 15.03432632 66.66421844 15.1975589 67.40281677 15.36573792 C71.77164013 16.3623968 76.13498339 17.38014846 80.49609375 18.41015625 C94.88603088 21.76683748 109.32129874 24.29532429 123.90844727 26.59545898 C133.42927183 28.09764984 142.92335955 29.67411808 152.39453125 31.46875 C153.42457275 31.65896729 154.45461426 31.84918457 155.51586914 32.04516602 C165.10487457 33.89899193 173.94559803 36.19491496 179.8359375 44.5625 C188.60514566 60.35354643 185.26208474 82.17956637 180.58203125 98.78125 C174.87953277 115.65427266 174.87953277 115.65427266 169.58203125 120.78125 C169.60559692 118.89019531 169.60559692 118.89019531 169.62963867 116.9609375 C169.6841825 112.25706439 169.71847001 107.55321893 169.74682617 102.84912109 C169.76185724 100.8181487 169.78228772 98.78720846 169.80834961 96.75634766 C169.84498357 93.82706741 169.86181476 90.89821856 169.875 87.96875 C169.89048386 87.06946777 169.90596771 86.17018555 169.92192078 85.24365234 C169.92346379 79.38540927 168.93777309 75.15214723 166.58203125 69.78125 C166.27265625 68.9975 165.96328125 68.21375 165.64453125 67.40625 C163.60286279 64.28369823 159.37150167 63.1949311 156.01953125 61.78125 C155.25511719 61.45125 154.49070312 61.12125 153.703125 60.78125 C144.67540493 57.88876397 135.6968569 57.48401348 126.28125 57.515625 C125.02283798 57.51289581 123.76442596 57.51016663 122.46788025 57.50735474 C119.09665616 57.50401283 115.72579919 57.51043908 112.35462189 57.52370453 C110.25836451 57.53129041 108.1621252 57.53539314 106.06585693 57.53863525 C83.85693751 57.57920156 61.73386631 58.12817001 39.58203125 59.78125 C38.33260742 59.87196777 37.08318359 59.96268555 35.79589844 60.05615234 C24.20109725 60.78484253 24.20109725 60.78484253 12.6953125 62.29296875 C8.87867357 62.89156331 5.08998457 63.09842974 1.23510742 63.32592773 C-13.79708955 64.21652849 -28.75424771 65.66073761 -43.73046875 67.21875 C-44.79172974 67.32905548 -45.85299072 67.43936096 -46.94641113 67.55300903 C-51.17023728 67.99232517 -55.39403155 68.43194442 -59.61773682 68.87242126 C-79.31038907 70.92052728 -99.02698179 72.72438541 -118.76171875 74.31640625 C-122.45152466 74.61484643 -126.138209 74.93528098 -129.82421875 75.27734375 C-162.36493197 78.25312463 -194.94299591 79.12144985 -227.60498047 79.04199219 C-232.38216474 79.03048338 -237.15912883 79.0374545 -241.936306 79.04888153 C-291.49210279 79.14918877 -291.49210279 79.14918877 -307.41796875 75.78125 C-307.41796875 75.45125 -307.41796875 75.12125 -307.41796875 74.78125 C-305.8568335 74.75937622 -305.8568335 74.75937622 -304.26416016 74.73706055 C-263.74261418 74.13233082 -223.24484325 72.11660677 -182.91711426 68.03198242 C-180.17673557 67.75704774 -177.4355941 67.49062764 -174.69433594 67.22460938 C-128.40074501 62.69776737 -81.41041879 56.945038 -36.41796875 44.78125 C-35.42506836 44.51860352 -34.43216797 44.25595703 -33.40917969 43.98535156 C-19.91169325 40.39223984 -6.81005668 36.34176714 5.58203125 29.78125 C5.58203125 29.12125 5.58203125 28.46125 5.58203125 27.78125 C-9.36069606 23.43603669 -24.33749171 19.53656357 -39.51953125 16.12109375 C-44.31931592 15.0411803 -49.09115616 13.88191619 -53.85546875 12.65625 C-77.25681715 6.7510088 -100.99644451 3.12294496 -124.91796875 0.09375 C-125.76555756 -0.01484344 -126.61314636 -0.12343689 -127.48641968 -0.23532104 C-143.62790968 -2.29178217 -159.62930014 -3.3947864 -175.90722656 -3.34912109 C-178.15306446 -3.34378541 -180.39869952 -3.3490969 -182.64453125 -3.35546875 C-201.0365524 -3.36820543 -219.08347149 -2.19484234 -237.29296875 0.40625 C-238.21941193 0.53652588 -239.1458551 0.66680176 -240.10037231 0.80102539 C-256.81645138 3.17166868 -273.10967588 6.37731189 -289.41796875 10.78125 C-290.32337402 11.02311035 -291.2287793 11.2649707 -292.16162109 11.51416016 C-310.94848658 16.62018623 -329.39103483 23.46824274 -347.41796875 30.78125 C-349.41306031 31.56469987 -351.41199652 32.33859476 -353.41796875 33.09375 C-354.32546875 33.44050781 -355.23296875 33.78726563 -356.16796875 34.14453125 C-358.41796875 34.78125 -358.41796875 34.78125 -360.41796875 33.78125 C-359.0117627 33.08032227 -359.0117627 33.08032227 -357.57714844 32.36523438 C-350.89524166 29.03106476 -344.21940226 25.68597813 -337.56245422 22.30220032 C-302.83785139 4.65476852 -302.83785139 4.65476852 -288.45947266 -0.48632812 C-286.41746329 -1.21893134 -284.39263046 -1.98852826 -282.3671875 -2.765625 C-194.55330581 -35.82906585 -100.32039851 -23.37150763 0 0 Z " fill="#1C1C1C" transform="translate(720.41796875,216.21875)"/>
<path d="M0 0 C2.164892 -0.0013556 4.3297837 -0.00330343 6.49467468 -0.00579834 C10.99623561 -0.00871464 15.49771616 -0.00457125 19.99926758 0.00488281 C25.65191209 0.01620124 31.30436673 0.00954882 36.95700455 -0.00199032 C61.45746118 -0.04452627 85.8252909 0.32707293 110.27120972 1.98419189 C117.6421373 2.48046219 125.01878364 2.88378062 132.39453125 3.30078125 C133.89254974 3.38614215 135.3905661 3.47154051 136.88858032 3.55697632 C141.4710974 3.81757234 146.05383529 4.07405748 150.63671875 4.328125 C151.42783176 4.37199844 152.21894478 4.41587189 153.03403091 4.46107483 C184.52670724 6.19934568 215.97024061 7.06031856 247.51171875 7.265625 C244.01166671 9.59899303 240.88712648 10.11630185 236.82421875 10.765625 C236.0367627 10.89308105 235.24930664 11.02053711 234.43798828 11.15185547 C227.94214256 12.14841296 221.43364769 12.83219615 214.88671875 13.390625 C214.01442627 13.46603516 213.14213379 13.54144531 212.2434082 13.61914062 C189.5376495 15.3957477 166.77879846 15.44690842 144.0200429 15.53601646 C139.59735751 15.55452805 135.17470404 15.57882887 130.75204468 15.60266113 C119.54695912 15.6621177 108.34184392 15.71426882 97.13671875 15.765625 C85.03589275 15.82111146 72.93508163 15.87801264 60.83430326 15.94317389 C56.46089915 15.96651881 52.0875025 15.98811448 47.71406937 16.00526428 C28.29286803 16.0818247 8.91469086 16.3201794 -10.48828125 17.265625 C-11.72497826 17.32502306 -11.72497826 17.32502306 -12.98665905 17.38562107 C-59.46287589 19.64130237 -107.08831329 25.91227618 -147.96777344 49.70898438 C-149.18062012 50.40991211 -149.18062012 50.40991211 -150.41796875 51.125 C-151.14999512 51.55780273 -151.88202148 51.99060547 -152.63623047 52.43652344 C-153.55299561 52.84692871 -153.55299561 52.84692871 -154.48828125 53.265625 C-155.14828125 52.935625 -155.80828125 52.605625 -156.48828125 52.265625 C-154.54168848 49.81015138 -152.58774159 47.36134061 -150.62109375 44.921875 C-149.4110193 43.41482257 -148.21067671 41.89948711 -147.04296875 40.359375 C-133.70938339 23.43290736 -111.58387072 15.53297114 -91.48828125 10.265625 C-89.76351562 9.77449219 -89.76351562 9.77449219 -88.00390625 9.2734375 C-79.6017293 6.98676909 -71.1578222 5.45311394 -62.55078125 4.140625 C-61.53540283 3.98207031 -60.52002441 3.82351563 -59.47387695 3.66015625 C-39.74796052 0.79509065 -19.90844982 -0.04538694 0 0 Z " fill="#1C1C1C" transform="translate(301.48828125,266.734375)"/>
<path d="M0 0 C6.3557315 5.60307908 11.44041617 11.2228829 15.296875 18.79296875 C14.966875 19.45296875 14.636875 20.11296875 14.296875 20.79296875 C13.8328125 20.38046875 13.36875 19.96796875 12.890625 19.54296875 C-7.27453197 2.6885092 -32.83371285 -1.82186126 -58.40625 0.06640625 C-75.83400794 2.34145839 -90.67531033 10.97923783 -105.1015625 20.50390625 C-115.52794052 25.67012959 -125.92962111 25.20165962 -137.28955078 25.13354492 C-139.27129605 25.13269774 -141.25304226 25.13317557 -143.23478699 25.13487244 C-148.59154536 25.13573025 -153.94810062 25.11813908 -159.30481195 25.09715056 C-164.91152055 25.0783481 -170.51823422 25.07663051 -176.12496948 25.07307434 C-186.73176338 25.06376436 -197.33846408 25.03916473 -207.94521701 25.00902587 C-220.02501248 24.97544928 -232.10481249 24.95898765 -244.18464303 24.94393957 C-269.0241886 24.91261426 -293.86365157 24.85987412 -318.703125 24.79296875 C-318.373125 24.13296875 -318.043125 23.47296875 -317.703125 22.79296875 C-288.30972715 13.78012052 -252.83156223 16.21700972 -222.42137337 15.17203331 C-219.79149479 15.08157748 -217.16166735 14.98973686 -214.53184509 14.8976593 C-206.70198665 14.62497873 -198.87227084 14.3596494 -191.04096508 14.13185978 C-175.10495348 13.66119836 -159.19137464 13.03025561 -143.32919502 11.36063957 C-141.90675146 11.21230043 -140.48342238 11.07214987 -139.05924797 10.94146919 C-128.48120719 9.94529945 -120.80723841 7.00605385 -111.703125 1.79296875 C-110.88894608 1.33988342 -110.07476715 0.8867981 -109.23591614 0.41998291 C-107.37764792 -0.62070317 -105.54012579 -1.69185749 -103.703125 -2.76953125 C-71.73828191 -21.04294838 -30.11843804 -24.59092123 0 0 Z " fill="#1D1D1D" transform="translate(815.703125,309.20703125)"/>
<path d="M0 0 C1.17699463 0.00684814 2.35398926 0.01369629 3.56665039 0.02075195 C12.85504582 0.19128084 20.91896703 1.34452504 29.6875 4.4375 C30.72261719 4.77652344 31.75773437 5.11554688 32.82421875 5.46484375 C41.961513 8.82115706 53.26746193 15.08562638 58.6875 23.4375 C48.80640526 21.54439306 38.99517071 19.40803984 29.19091797 17.15161133 C28.29002441 16.94431396 27.38913086 16.7370166 26.4609375 16.5234375 C25.66091309 16.3382959 24.86088867 16.1531543 24.03662109 15.96240234 C23.26141113 15.78918457 22.48620117 15.6159668 21.6875 15.4375 C20.92042725 15.25429199 20.15335449 15.07108398 19.36303711 14.88232422 C15.94099113 14.31338839 12.56466496 14.25569392 9.10546875 14.234375 C8.37362869 14.22867493 7.64178864 14.22297485 6.88777161 14.21710205 C5.33706084 14.20767793 3.78633029 14.20112838 2.2355957 14.19726562 C-0.0796482 14.18768762 -2.39395334 14.15669579 -4.70898438 14.125 C-14.93026123 14.05087331 -24.35532884 15.17116001 -34.3125 17.4375 C-35.51849854 17.70981445 -36.72449707 17.98212891 -37.96704102 18.26269531 C-42.54487285 19.32163003 -47.11115034 20.42474051 -51.67578125 21.5390625 C-53.31740234 21.92964844 -53.31740234 21.92964844 -54.9921875 22.328125 C-55.96913574 22.56563477 -56.94608398 22.80314453 -57.95263672 23.04785156 C-60.3125 23.4375 -60.3125 23.4375 -62.3125 22.4375 C-51.67067212 13.96011169 -39.52394951 6.98784977 -26.3125 3.4375 C-25.38953125 3.18774414 -24.4665625 2.93798828 -23.515625 2.68066406 C-15.58091229 0.68464958 -8.16967544 -0.07373886 0 0 Z " fill="#1D1D1D" transform="translate(266.3125,306.5625)"/>
<path d="M0 0 C3.69024566 3.05763212 5.0179855 5.48060035 5.625 10.25 C5.10356726 14.49595227 3.91832959 16.55067577 1.1875 19.8125 C-5.80171855 24.30448142 -16.06278125 21.8285401 -23.73046875 20.34765625 C-25.8125 19.8125 -25.8125 19.8125 -26.8125 18.8125 C-27.51968232 11.7406768 -27.51968232 11.7406768 -24.8125 8.1875 C-23.3275 7.011875 -23.3275 7.011875 -21.8125 5.8125 C-21.14992188 5.28398437 -20.48734375 4.75546875 -19.8046875 4.2109375 C-13.65287001 -0.57885398 -7.64771982 -3.22903726 0 0 Z " fill="#1F1F1F" transform="translate(413.8125,238.1875)"/>
<path d="M0 0 C0 1.65 0 3.3 0 5 C3.96 5.33 7.92 5.66 12 6 C12 6.33 12 6.66 12 7 C0.97528213 7.04686666 -10.04941107 7.08213953 -21.07420921 7.10362434 C-26.1964819 7.11394913 -31.3186852 7.1278944 -36.44091797 7.15087891 C-90.92577243 7.3888868 -90.92577243 7.3888868 -107 4 C-107 3.67 -107 3.34 -107 3 C-105.43886475 2.97812622 -105.43886475 2.97812622 -103.84619141 2.95581055 C-79.40204379 2.59148329 -55.0515926 1.62630971 -30.65673828 0.01635742 C-3.52663241 -1.76331621 -3.52663241 -1.76331621 0 0 Z " fill="#232323" transform="translate(520,288)"/>
<path d="M0 0 C1.26585937 0.0928125 2.53171875 0.185625 3.8359375 0.28125 C5.21652344 0.38953125 5.21652344 0.38953125 6.625 0.5 C5.62109375 1.95703125 5.62109375 1.95703125 3.625 3.5 C0.91062274 3.89378009 -1.58640859 4.10709888 -4.3125 4.1875 C-5.51132812 4.23547729 -5.51132812 4.23547729 -6.734375 4.28442383 C-9.28108415 4.3762618 -11.82732242 4.44148874 -14.375 4.5 C-15.55473389 4.53287109 -15.55473389 4.53287109 -16.75830078 4.56640625 C-32.73711318 4.96662697 -49.71444233 4.8858271 -65.375 1.5 C-65.375 1.17 -65.375 0.84 -65.375 0.5 C-59.50753789 0.35540924 -53.64002625 0.21309431 -47.77246094 0.07275391 C-45.78253748 0.02485429 -43.79262806 -0.02363294 -41.80273438 -0.07275391 C-11.01785418 -0.83153616 -11.01785418 -0.83153616 0 0 Z " fill="#1E1E1E" transform="translate(478.375,290.5)"/>
<path d="M0 0 C-0.66 1.65 -1.32 3.3 -2 5 C-1.34 5.33 -0.68 5.66 0 6 C-0.99 6.33 -1.98 6.66 -3 7 C-3 7.66 -3 8.32 -3 9 C-3.79583496 9.28198242 -4.59166992 9.56396484 -5.41162109 9.85449219 C-8.41284153 10.91897734 -11.41341065 11.98527452 -14.41357422 13.05273438 C-15.70303645 13.51112423 -16.99274322 13.96882688 -18.28271484 14.42578125 C-25.92234109 17.13259521 -33.49557061 19.9390058 -41 23 C-42.99509156 23.78344987 -44.99402777 24.55734476 -47 25.3125 C-47.9075 25.65925781 -48.815 26.00601563 -49.75 26.36328125 C-52 27 -52 27 -54 26 C-53.06397949 25.53271484 -52.12795898 25.06542969 -51.16357422 24.58398438 C-44.43375493 21.22249352 -37.7069107 17.85535201 -30.98956299 14.46899414 C-27.83483428 12.87908865 -24.67847874 11.29242798 -21.52197266 9.70605469 C-19.89823814 8.88906054 -18.27521164 8.07065798 -16.65283203 7.25097656 C-14.27300493 6.04902461 -11.89069215 4.85213627 -9.5078125 3.65625 C-8.78087189 3.28761841 -8.05393127 2.91898682 -7.30496216 2.53918457 C-2.22773955 0 -2.22773955 0 0 0 Z " fill="#222222" transform="translate(414,224)"/>
<path d="M0 0 C1.16257324 0.01047363 2.32514648 0.02094727 3.52294922 0.03173828 C5.40820312 0.04140625 5.40820312 0.04140625 7.33154297 0.05126953 C9.30960937 0.07640625 9.30960937 0.07640625 11.32763672 0.10205078 C12.66747393 0.11208096 14.00731823 0.12120674 15.34716797 0.12939453 C18.63250244 0.15303003 21.91748137 0.18597844 25.20263672 0.22705078 C24.54263672 1.54705078 23.88263672 2.86705078 23.20263672 4.22705078 C28.81263672 4.55705078 34.42263672 4.88705078 40.20263672 5.22705078 C40.20263672 5.55705078 40.20263672 5.88705078 40.20263672 6.22705078 C23.37263672 6.22705078 6.54263672 6.22705078 -10.79736328 6.22705078 C-10.79736328 5.89705078 -10.79736328 5.56705078 -10.79736328 5.22705078 C-2.38236328 4.73205078 -2.38236328 4.73205078 6.20263672 4.22705078 C6.20263672 3.89705078 6.20263672 3.56705078 6.20263672 3.22705078 C2.57263672 2.89705078 -1.05736328 2.56705078 -4.79736328 2.22705078 C-2.79736328 0.22705078 -2.79736328 0.22705078 0 0 Z " fill="#1C1C1C" transform="translate(474.79736328125,288.77294921875)"/>
<path d="M0 0 C0.89203125 0.01804687 1.7840625 0.03609375 2.703125 0.0546875 C3.71632813 0.08949219 3.71632813 0.08949219 4.75 0.125 C4.75 0.455 4.75 0.785 4.75 1.125 C7.225 1.62 7.225 1.62 9.75 2.125 C10.08 3.445 10.41 4.765 10.75 6.125 C13.06 6.455 15.37 6.785 17.75 7.125 C17.75 7.455 17.75 7.785 17.75 8.125 C14.29168516 8.15449232 10.83340346 8.1719616 7.375 8.1875 C6.40949219 8.19587891 5.44398438 8.20425781 4.44921875 8.21289062 C-1.84824289 8.23402305 -7.99839863 7.88607198 -14.25 7.125 C-13.92 5.805 -13.59 4.485 -13.25 3.125 C-12.6725 3.00125 -12.095 2.8775 -11.5 2.75 C-9.25340082 2.22444694 -9.25340082 2.22444694 -7.4375 1.09375 C-4.79825821 -0.07505708 -2.87267424 -0.07559669 0 0 Z " fill="#242424" transform="translate(486.25,272.875)"/>
<path d="M0 0 C9.73524288 -0.13500337 19.29821771 0.2390759 29 1 C27.99609375 2.45703125 27.99609375 2.45703125 26 4 C23.28616914 4.39370082 20.78806347 4.60630929 18.0625 4.6875 C17.28213379 4.72093506 16.50176758 4.75437012 15.69775391 4.78881836 C6.46950328 5.14037946 -2.7671895 5.0867383 -12 5 C-12 4.67 -12 4.34 -12 4 C-6.06 4 -0.12 4 6 4 C6 3.34 6 2.68 6 2 C3.03 1.505 3.03 1.505 0 1 C0 0.67 0 0.34 0 0 Z " fill="#2D2D2D" transform="translate(456,290)"/>
<path d="M0 0 C6.93 0 13.86 0 21 0 C20.34 0.66 19.68 1.32 19 2 C19.33 2.99 19.66 3.98 20 5 C18.35 5 16.7 5 15 5 C15 5.33 15 5.66 15 6 C9.39 6 3.78 6 -2 6 C-2 5.67 -2 5.34 -2 5 C0.97 5 3.94 5 7 5 C6.67 3.68 6.34 2.36 6 1 C4.02 1 2.04 1 0 1 C0 0.67 0 0.34 0 0 Z " fill="#151515" transform="translate(490,274)"/>
<path d="M0 0 C-10.23 0 -20.46 0 -31 0 C-30 -2 -30 -2 -28.0234375 -2.66796875 C-18.88546839 -4.46052021 -7.71980565 -5.78985424 0 0 Z " fill="#303030" transform="translate(528,334)"/>
<path d="M0 0 C7.59 0 15.18 0 23 0 C20.1077916 1.92813893 19.1467317 2.30554238 15.875 2.66796875 C15.08609375 2.75626953 14.2971875 2.84457031 13.484375 2.93554688 C12.66453125 3.01869141 11.8446875 3.10183594 11 3.1875 C10.18015625 3.28224609 9.3603125 3.37699219 8.515625 3.47460938 C2.39048006 4.13016002 2.39048006 4.13016002 -1 3 C-0.67 2.01 -0.34 1.02 0 0 Z " fill="#191919" transform="translate(526,274)"/>
<path d="M0 0 C0.33 0.66 0.66 1.32 1 2 C0.35933594 2.15855469 -0.28132813 2.31710938 -0.94140625 2.48046875 C-6.95144511 4.10165658 -11.14920406 6.09827283 -16 10 C-16.12375 9.360625 -16.2475 8.72125 -16.375 8.0625 C-16.58125 7.381875 -16.7875 6.70125 -17 6 C-17.66 5.67 -18.32 5.34 -19 5 C-16.21142 3.96995707 -13.41969712 2.95069003 -10.625 1.9375 C-9.8309375 1.64294922 -9.036875 1.34839844 -8.21875 1.04492188 C-7.45820313 0.77099609 -6.69765625 0.49707031 -5.9140625 0.21484375 C-5.2123291 -0.04176025 -4.5105957 -0.29836426 -3.78759766 -0.56274414 C-2 -1 -2 -1 0 0 Z " fill="#E6E6E6" transform="translate(407,235)"/>
<path d="M0 0 C0.33 1.32 0.66 2.64 1 4 C-5.93292719 6.59655258 -12.8821847 8.96192707 -20 11 C-18.68130208 8.36260417 -17.40210232 8.06719975 -14.74609375 6.8359375 C-13.89208984 6.43632812 -13.03808594 6.03671875 -12.15820312 5.625 C-11.26037109 5.2125 -10.36253906 4.8 -9.4375 4.375 C-8.53580078 3.95476562 -7.63410156 3.53453125 -6.70507812 3.1015625 C-4.47258551 2.06209504 -2.23754662 1.02853181 0 0 Z " fill="#2F2F2F" transform="translate(380,240)"/>
<path d="M0 0 C0.99 0.33 1.98 0.66 3 1 C3 2.65 3 4.3 3 6 C1.71349294 6.69710731 0.42059335 7.38242876 -0.875 8.0625 C-1.59429687 8.44535156 -2.31359375 8.82820313 -3.0546875 9.22265625 C-3.69664062 9.47917969 -4.33859375 9.73570312 -5 10 C-5.66 9.67 -6.32 9.34 -7 9 C-4.69 6.03 -2.38 3.06 0 0 Z " fill="#282828" transform="translate(152,310)"/>
<path d="M0 0 C0.66 0 1.32 0 2 0 C2.8638129 1.45264038 3.71580454 2.9123163 4.5625 4.375 C5.27599609 5.59316406 5.27599609 5.59316406 6.00390625 6.8359375 C6.33261719 7.55007813 6.66132812 8.26421875 7 9 C6.67 9.66 6.34 10.32 6 11 C3.03 8.69 0.06 6.38 -3 4 C-2.01 2.68 -1.02 1.36 0 0 Z " fill="#272727" transform="translate(824,319)"/>
<path d="M0 0 C5.35152885 0.32433508 8.28280043 3.49704824 12 7 C9.19664415 8.40167793 7.9650644 7.96536981 5 7 C2.1875 4.5625 2.1875 4.5625 0 2 C0 1.34 0 0.68 0 0 Z " fill="#2B2B2B" transform="translate(313,322)"/>
<path d="M0 0 C1.1796875 1.609375 1.1796875 1.609375 2 4 C0.8828125 7.015625 0.8828125 7.015625 -0.875 10.25 C-1.44992187 11.32765625 -2.02484375 12.4053125 -2.6171875 13.515625 C-3.07351563 14.33546875 -3.52984375 15.1553125 -4 16 C-5 14 -5 14 -4.0625 10.875 C-3.711875 9.92625 -3.36125 8.9775 -3 8 C-2.34 8 -1.68 8 -1 8 C-1.020625 6.865625 -1.04125 5.73125 -1.0625 4.5625 C-1 1 -1 1 0 0 Z " fill="#232323" transform="translate(895,321)"/>
<path d="M0 0 C0.66 0 1.32 0 2 0 C2 0.66 2 1.32 2 2 C2.99 2.33 3.98 2.66 5 3 C5 3.33 5 3.66 5 4 C1.37 4.66 -2.26 5.32 -6 6 C-4 4 -2 2 0 0 Z " fill="#282828" transform="translate(210,324)"/>
<path d="M0 0 C0.53625 0.226875 1.0725 0.45375 1.625 0.6875 C0.965 1.3475 0.305 2.0075 -0.375 2.6875 C-1.695 2.6875 -3.015 2.6875 -4.375 2.6875 C-4.375 3.3475 -4.375 4.0075 -4.375 4.6875 C-5.695 4.0275 -7.015 3.3675 -8.375 2.6875 C-2.95961538 -0.38942308 -2.95961538 -0.38942308 0 0 Z " fill="#E4E4E4" transform="translate(178.375,304.3125)"/>
<path d="M0 0 C0.99 0.66 1.98 1.32 3 2 C2.67 3.65 2.34 5.3 2 7 C1.01 6.67 0.02 6.34 -1 6 C-1.33 4.35 -1.66 2.7 -2 1 C-1.34 0.67 -0.68 0.34 0 0 Z " fill="#EAEAEA" transform="translate(178,282)"/>
<path d="M0 0 C2.86724686 0.57344937 3.8614515 0.8614515 6 3 C3.29120665 4.35439668 0.99066732 4.06501451 -2 4 C-1.34 2.68 -0.68 1.36 0 0 Z " fill="#191919" transform="translate(392,234)"/>
<path d="M0 0 C1.32 0.66 2.64 1.32 4 2 C1.36 3.65 -1.28 5.3 -4 7 C-3.67 5.68 -3.34 4.36 -3 3 C-2.01 2.67 -1.02 2.34 0 2 C0 1.34 0 0.68 0 0 Z " fill="#E2E2E2" transform="translate(170,290)"/>
<path d="M0 0 C0.33 1.32 0.66 2.64 1 4 C0.01 4.66 -0.98 5.32 -2 6 C-2.12375 5.360625 -2.2475 4.72125 -2.375 4.0625 C-2.684375 3.0415625 -2.684375 3.0415625 -3 2 C-3.66 1.67 -4.32 1.34 -5 1 C-2 0 -2 0 0 0 Z " fill="#D8D8D8" transform="translate(393,239)"/>
<path d="M0 0 C0.66 1.32 1.32 2.64 2 4 C0.02 4.66 -1.96 5.32 -4 6 C-4 4.68 -4 3.36 -4 2 C-2.68 1.34 -1.36 0.68 0 0 Z " fill="#232323" transform="translate(716,304)"/>
<path d="M0 0 C0.33 0.99 0.66 1.98 1 3 C1.66 3.33 2.32 3.66 3 4 C2.01 4.33 1.02 4.66 0 5 C-1.66710346 6.49985609 -1.66710346 6.49985609 -3 8 C-1.125 1.125 -1.125 1.125 0 0 Z " fill="#E5E5E5" transform="translate(898,322)"/>
<path d="M0 0 C3.26954202 0.56371414 4.82575883 1.49962266 7 4 C6.67 4.66 6.34 5.32 6 6 C2.535 4.02 2.535 4.02 -1 2 C-0.67 1.34 -0.34 0.68 0 0 Z " fill="#272727" transform="translate(813,316)"/>
<path d="M0 0 C1.32 0.66 2.64 1.32 4 2 C3.67 2.99 3.34 3.98 3 5 C1.02 4.01 -0.96 3.02 -3 2 C-2.01 1.34 -1.02 0.68 0 0 Z " fill="#222222" transform="translate(880,276)"/>
<path d="M0 0 C1.98 0.66 3.96 1.32 6 2 C3.38058783 3.74627478 1.96175123 4.38722388 -1 5 C-0.67 3.35 -0.34 1.7 0 0 Z " fill="#EBEBEB" transform="translate(705,251)"/>
<path d="M0 0 C0.33 0.66 0.66 1.32 1 2 C-2.375 2.625 -2.375 2.625 -6 3 C-6.66 2.34 -7.32 1.68 -8 1 C-2.25 -1.125 -2.25 -1.125 0 0 Z " fill="#D8D8D8" transform="translate(407,235)"/>
<path d="M0 0 C-0.33 0.99 -0.66 1.98 -1 3 C-3.97 3 -6.94 3 -10 3 C-6.41600853 0.61067235 -4.26804999 0 0 0 Z " fill="#D8D8D8" transform="translate(431,227)"/>
</svg>
