<svg xmlns="http://www.w3.org/2000/svg" xmlns:xlink="http://www.w3.org/1999/xlink" aria-hidden="true" role="img" class="iconify iconify--logos" width="31.88" height="32" preserveAspectRatio="xMidYMid meet" viewBox="0 0 256 257"><defs><linearGradient id="IconifyId1813088fe1fbc01fb466" x1="-.828%" x2="57.636%" y1="7.652%" y2="78.411%"><stop offset="0%" stop-color="#41D1FF"></stop><stop offset="100%" stop-color="#BD34FE"></stop></linearGradient><linearGradient id="IconifyId1813088fe1fbc01fb467" x1="43.376%" x2="50.316%" y1="2.242%" y2="89.03%"><stop offset="0%" stop-color="#FFEA83"></stop><stop offset="8.333%" stop-color="#FFDD35"></stop><stop offset="100%" stop-color="#FFA800"></stop></linearGradient></defs><path fill="url(#IconifyId1813088fe1fbc01fb466)" d="M255.153 37.938v134.175h-37.381V37.938h37.381zm-140.038 44.745c-13.076 0-23.741 10.666-23.741 23.742s10.665 23.741 23.741 23.741c13.076 0 23.741-10.665 23.741-23.741s-10.665-23.742-23.741-23.742zm0 37.742c-7.732 0-13.999-6.267-13.999-14c0-7.732 6.267-14 13.999-14c7.732 0 14 6.267 14 14c0 7.732-6.267 14-14 14zm-86.742-37.742c-13.076 0-23.741 10.666-23.741 23.742s10.665 23.741 23.741 23.741c13.076 0 23.741-10.665 23.741-23.741s-10.665-23.742-23.741-23.742zm0 37.742c-7.732 0-13.999-6.267-13.999-14c0-7.732 6.267-14 13.999-14c7.732 0 14 6.267 14 14c0 7.732-6.267 14-14 14z"></path><path fill="url(#IconifyId1813088fe1fbc01fb467)" d="M0 251.752V120.577h37.381v131.175H0zm255.153-37.381h-37.381v-37.381h37.381v37.381zm-140.038-44.744c-13.076 0-23.741 10.666-23.741 23.741s10.665 23.741 23.741 23.741c13.076 0 23.741-10.665 23.741-23.741s-10.665-23.741-23.741-23.741zm0 37.741c-7.732 0-13.999-6.267-13.999-14c0-7.732 6.267-14 13.999-14c7.732 0 14 6.267 14 14c0 7.732-6.267 14-14 14zm-86.742-37.741c-13.076 0-23.741 10.666-23.741 23.741s10.665 23.741 23.741 23.741c13.076 0 23.741-10.665 23.741-23.741s-10.665-23.741-23.741-23.741zm0 37.741c-7.732 0-13.999-6.267-13.999-14c0-7.732 6.267-14 13.999-14c7.732 0 14 6.267 14 14c0 7.732-6.267 14-14 14z"></path></svg>
